<svg xmlns="http://www.w3.org/2000/svg" version="1.1" xmlns:xlink="http://www.w3.org/1999/xlink" width="1500" height="1500" viewBox="0 0 1500 1500"><rect width="1500" height="1500" x="0" y="0" id="background" stroke="transparent" fill="#f3f3f3"></rect><svg xml:space="preserve" width="1000" height="1000" data-version="2" data-id="lg_rA9WLhvgp4mnbpCSMo" viewBox="0 0 638 129" x="250" y="250"><rect width="100%" height="100%" fill="transparent"></rect><path fill="#7b7b7b" d="M182.095 89.78q-4.52 0-8.42-1.28-3.9-1.29-6.83-4.26-2.92-2.96-4.6-7.83-1.68-4.88-1.68-12.13v-4.14q0-7.1 1.72-11.97 1.72-4.88 4.68-7.84t6.83-4.29q3.86-1.33 8.3-1.33h1.02q4.05 0 7.76 1.1 3.7 1.09 6.51 3.58 2.81 2.5 4.49 6.56 1.67 4.05 1.67 9.98h-7.88q0-5.85-1.75-9.01-1.76-3.16-4.72-4.41-2.96-1.24-6.71-1.24-2.88 0-5.3.82-2.42.81-4.21 2.76-1.8 1.95-2.77 5.27-.98 3.31-.98 8.31v7.64q0 6.63 1.68 10.37 1.68 3.75 4.64 5.27 2.96 1.52 6.86 1.52 3.9 0 6.95-1.25 3.04-1.25 4.79-4.4 1.76-3.16 1.76-8.94h7.64q0 5.62-1.64 9.68-1.63 4.05-4.48 6.55-2.85 2.49-6.55 3.7-3.71 1.21-7.84 1.21Z"></path><rect width="42.98" height="55.07" x="-21.49" y="-27.54" fill="none" rx="0" ry="0" transform="translate(182.56 62.74)"></rect><path fill="#7b7b7b" d="M215.015 89V35.49h8.27v46.96h24.18l1.09 6.55Z"></path><rect width="33.54" height="53.51" x="-16.77" y="-26.75" fill="none" rx="0" ry="0" transform="translate(232.28 62.74)"></rect><path fill="#7b7b7b" d="M275.695 89.78q-4.44 0-8.38-1.36-3.94-1.37-6.91-4.41-2.96-3.04-4.64-7.88-1.67-4.83-1.67-11.85v-4.06q0-6.94 1.71-11.82 1.72-4.87 4.72-7.87 3-3.01 6.9-4.37 3.9-1.37 8.27-1.37h1.56q4.53 0 8.43 1.37 3.9 1.36 6.86 4.37 2.96 3 4.64 7.87 1.68 4.88 1.68 11.82v4.06q0 7.02-1.72 11.89-1.71 4.88-4.72 7.88-3 3-6.9 4.37-3.9 1.36-8.27 1.36Zm.78-6.55q2.89 0 5.35-.82 2.45-.82 4.36-2.77 1.91-1.95 2.97-5.22 1.05-3.28 1.05-8.27V58.5q0-4.99-1.05-8.34-1.06-3.36-2.97-5.27-1.91-1.91-4.36-2.73-2.46-.82-5.35-.82-2.81 0-5.3.82-2.5.82-4.41 2.73-1.91 1.91-2.96 5.23-1.06 3.31-1.06 8.31v7.64q0 4.99 1.06 8.31 1.05 3.31 2.96 5.26 1.91 1.95 4.37 2.77 2.46.82 5.34.82"></path><rect width="44.77" height="54.99" x="-22.39" y="-27.5" fill="none" rx="0" ry="0" transform="translate(276.98 62.78)"></rect><path fill="#7b7b7b" d="M329.045 89.78q-5.77 0-10.06-2.22-4.29-2.22-6.59-6.24t-2.3-9.4V35.49h8.27v36.2q0 5.14 3.12 8.34t8.5 3.2q5.62 0 8.66-3.24 3.04-3.23 3.04-8.3v-36.2h8.35v36.43q0 5.3-2.5 9.36t-6.86 6.28q-4.37 2.22-10.14 2.22Z"></path><rect width="39.94" height="54.29" x="-19.97" y="-27.14" fill="none" rx="0" ry="0" transform="translate(330.56 63.13)"></rect><path fill="#7b7b7b" d="M363.755 89V35.49h19.43q4.52 0 8.42 1.29 3.9 1.29 6.9 4.17 3.01 2.89 4.64 7.49 1.64 4.6 1.64 11.31v3.51q0 6.63-1.64 11.47-1.63 4.83-4.64 8.03-3 3.2-6.9 4.72-3.9 1.52-8.42 1.52Zm8.27-6.55h10.61q3.82 0 6.86-1.68 3.05-1.67 4.84-5.46 1.79-3.78 1.79-10.18v-6.7q0-6.24-1.79-9.83t-4.84-5.07q-3.04-1.48-6.86-1.48h-10.61Z"></path><rect width="41.03" height="53.51" x="-20.52" y="-26.75" fill="none" rx="0" ry="0" transform="translate(384.77 62.74)"></rect><path fill="#7b7b7b" d="M416.565 89V35.49h13.34l16.53 41.58h.16l16.61-41.58h13.42V89h-8.27V45.01h-.39L450.575 89h-8.89l-17.32-43.99h-.39V89Z"></path><rect width="60.06" height="53.51" x="-30.03" y="-26.75" fill="none" rx="0" ry="0" transform="translate(447.1 62.74)"></rect><path fill="#7b7b7b" d="M490.745 89V35.49h35.41l-1.01 6.56h-26.13v16.38h23.63v6.55h-23.63v17.47h26.59l1.1 6.55Z"></path><rect width="35.96" height="53.51" x="-17.98" y="-26.75" fill="none" rx="0" ry="0" transform="translate(509.23 62.74)"></rect><path fill="#7b7b7b" d="M553.925 89.78q-5.54 0-10.1-1.56-4.57-1.56-7.3-5.07-2.73-3.51-2.73-9.36v-.74q0-.43.08-.82h7.72q-.07.47-.07.86v.86q0 3.2 1.56 5.22 1.56 2.03 4.36 3.05 2.81 1.01 6.48 1.01 3.9 0 6.71-.86 2.8-.86 4.33-2.84 1.52-1.99 1.52-5.19 0-2.89-1.72-4.64-1.72-1.76-4.52-2.77-2.81-1.02-6.17-1.83-3.35-.82-6.66-1.84-3.32-1.01-6.13-2.65t-4.52-4.37q-1.72-2.73-1.72-6.94 0-4.99 2.69-8.19 2.69-3.2 7.1-4.8 4.41-1.6 9.63-1.6 5.23 0 9.56 1.53 4.33 1.52 6.9 4.75 2.58 3.24 2.58 8.54v1.02h-7.57V49.3q0-2.65-1.48-4.45-1.48-1.79-3.98-2.69-2.5-.89-5.85-.89-3.28 0-5.81.74-2.54.74-4.02 2.34-1.48 1.6-1.48 4.25 0 2.73 1.72 4.37 1.71 1.63 4.52 2.61 2.81.97 6.2 1.75t6.75 1.8q3.35 1.01 6.16 2.69t4.52 4.41q1.72 2.73 1.72 7.02 0 6-2.81 9.63-2.81 3.63-7.56 5.26-4.76 1.64-10.61 1.64"></path><rect width="41.11" height="55.07" x="-20.55" y="-27.54" fill="none" rx="0" ry="0" transform="translate(554.85 62.74)"></rect><path fill="#7b7b7b" d="m579.585 89 20.75-53.51h9.36L630.365 89h-8.74l-4.68-12.01h-24.49L587.695 89Zm15.13-18.33h19.89l-9.75-25.82h-.31Z"></path><rect width="50.78" height="53.51" x="-25.39" y="-26.75" fill="none" rx="0" ry="0" transform="translate(605.48 62.74)"></rect><path fill="#7b7b7b" d="M24.306 44.41c-1.836 11.853.719 23.585 7.01 32.186 4.838 6.608 11.581 10.88 18.991 12.029 7.814 1.211 15.49-.59 21.615-5.073a26.861 26.861 0 0 0 4.578-4.234c-3.058 1.346-6.626 1.744-10.497 1.144-16.127-2.5-27.078-18.532-24.412-35.74 1.284-8.3 6.035-15.825 13.37-21.193 9.316-6.817 21.96-9.594 34.69-7.622 10.288 1.595 24.322 8.21 35.182 20.942 0 0-31.432-54.262-77.242-28.02C32.82 17.29 25.888 34.198 24.306 44.412"></path><path fill="#7b7b7b" d="M113.834 85.035c2.285-11.776.173-23.593-5.791-32.426-4.584-6.786-11.16-11.311-18.524-12.737-7.762-1.506-15.5.005-21.79 4.255a26.872 26.872 0 0 0-4.735 4.056c3.107-1.23 6.689-1.492 10.533-.747 16.023 3.107 26.361 19.54 23.048 36.637-1.598 8.245-6.629 15.586-14.161 20.673-9.567 6.459-22.306 8.759-34.954 6.307-10.217-1.982-23.993-9.12-34.367-22.252 0 0 29.364 55.41 76.13 30.912 15.081-7.897 22.644-24.53 24.612-34.678"></path><path fill="#7b7b7b" d="M49.389 109.294c11.852 1.837 23.583-.718 32.184-7.012 6.608-4.835 10.881-11.58 12.03-18.99 1.21-7.813-.591-15.49-5.073-21.614a26.924 26.924 0 0 0-4.234-4.58c1.347 3.06 1.744 6.629 1.143 10.498-2.5 16.128-18.531 27.08-35.74 24.414-8.3-1.286-15.826-6.036-21.192-13.37-6.816-9.316-9.595-21.961-7.623-34.69 1.596-10.287 8.21-24.324 20.941-35.184 0 0-54.263 31.434-28.02 77.243 8.461 14.77 25.369 21.702 35.582 23.285"></path><path fill="#7b7b7b" d="M124.692 44.376c-7.899-15.08-24.532-22.644-34.68-24.61-11.776-2.283-23.593-.17-32.426 5.793-6.786 4.584-11.31 11.16-12.738 18.522-1.505 7.764.005 15.501 4.256 21.79a26.832 26.832 0 0 0 4.055 4.735c-1.23-3.105-1.49-6.687-.746-10.53 3.107-16.022 19.54-26.363 36.636-23.05 8.245 1.6 15.587 6.63 20.675 14.164 6.458 9.563 8.758 22.304 6.307 34.952-1.982 10.217-9.122 23.992-22.254 34.365 0 0 55.41-29.36 30.915-76.13"></path></svg></svg>